<svg width="64" height="64" viewBox="0 0 64 64" fill="none" xmlns="http://www.w3.org/2000/svg">
<path d="M31.9999 49.5028C31.2558 49.5028 30.4818 49.2349 29.8865 48.6991L22.2065 41.9717C19.319 39.4415 18.932 35.0954 21.3432 32.0889C23.7841 29.0526 28.1302 28.487 31.2558 30.8387L31.9999 31.4042L32.7739 30.8089C35.8995 28.4573 40.2455 29.0229 42.6865 32.0591C45.0976 35.0656 44.7106 39.4117 41.8232 41.9419L34.1432 48.6694C33.5181 49.2349 32.7441 49.5028 31.9999 49.5028ZM25.1237 38.608L31.9999 44.621L38.8762 38.608C39.9776 37.6554 40.1265 36.0182 39.2037 34.887C38.2809 33.7261 36.6437 33.5177 35.453 34.4108L33.3395 35.9884C32.5358 36.5838 31.4641 36.5838 30.6604 35.9884L28.5469 34.4108C27.386 33.5177 25.719 33.7261 24.7962 34.887C23.9032 36.0182 24.052 37.6554 25.1237 38.608Z" fill="#292929"/>
<path d="M46.8837 64H17.1163C3.98884 64 0 60.0112 0 46.8837V17.1163C0 3.98884 3.98884 0 17.1163 0H21.5814C26.7907 0 28.4279 1.69674 30.5116 4.46512L34.9767 10.4186C35.9591 11.7284 36.1079 11.907 37.9535 11.907H46.8837C60.0112 11.907 64 15.8958 64 29.0233V46.8837C64 60.0112 60.0112 64 46.8837 64ZM17.1163 4.46512C6.45954 4.46512 4.46512 6.4893 4.46512 17.1163V46.8837C4.46512 57.5107 6.45954 59.5349 17.1163 59.5349H46.8837C57.5405 59.5349 59.5349 57.5107 59.5349 46.8837V29.0233C59.5349 18.3963 57.5405 16.3721 46.8837 16.3721H37.9535C34.1433 16.3721 32.893 15.0623 31.4047 13.0977L26.9395 7.14419C25.3916 5.09023 24.9153 4.46512 21.5814 4.46512H17.1163Z" fill="#292929"/>
</svg>
