<svg width="50" height="47" viewBox="0 0 50 47" fill="none" xmlns="http://www.w3.org/2000/svg">
<mask id="mask0_210_523" style="mask-type:alpha" maskUnits="userSpaceOnUse" x="0" y="0" width="50" height="47">
<path d="M0 0H49.2594V46.2874H0V0Z" fill="#C4C4C4"/>
</mask>
<g mask="url(#mask0_210_523)">
<path d="M38.7668 9.52973L38.7419 8.77241C38.917 8.60022 39.0565 8.45754 39.1316 8.37516C40.2515 7.14598 40.759 5.42848 40.4882 3.77992C40.4779 3.71693 40.4502 3.65929 40.4077 3.61257C40.3657 3.56651 40.3116 3.53514 40.2551 3.52404C38.7531 3.22681 37.1878 3.78334 36.0679 5.01256C35.9928 5.09491 35.8618 5.24698 35.7049 5.43906L35.0077 5.40388C34.7587 5.39329 34.4203 5.53116 34.2437 5.72494L32.9497 7.14519C32.7792 7.3323 32.8258 7.52604 32.9267 7.63675L32.9269 7.63705C32.9776 7.69262 33.0422 7.73715 33.13 7.75686L34.2741 8.01715C34.3145 8.02622 34.356 8.03205 34.4 8.03271L33.8958 10.2898C33.8614 10.4441 33.889 10.5852 33.9721 10.6764C34.0553 10.7677 34.1834 10.7986 34.3239 10.7608L36.3796 10.2083C36.3802 10.2566 36.384 10.3037 36.3922 10.348L36.6265 11.6069C36.6444 11.7032 36.6751 11.7757 36.7257 11.8313C36.8266 11.942 37.0005 11.9654 37.1711 11.7783L38.4651 10.358C38.6416 10.1643 38.7765 9.80301 38.7668 9.52973ZM37.5392 6.76151C37.2485 6.44247 37.2495 5.92405 37.5415 5.60359C37.8334 5.28316 38.3058 5.28201 38.5965 5.60108C38.8872 5.92016 38.8862 6.43854 38.5942 6.75901C38.3022 7.07947 37.8299 7.08056 37.5392 6.76151Z" fill="white"/>
<path d="M40.0181 28.3267L15.1747 3.4834L5.71615 12.9419C1.04122 17.6168 1.04121 25.1963 5.71614 29.8712L22.0948 46.2498C24.6937 43.651 24.6937 39.4373 22.0948 36.8384L12.3752 27.1189C9.25858 24.0023 9.25858 18.9492 12.3752 15.8326L15.2439 12.964L35.3124 33.0324L40.0181 28.3267Z" fill="white"/>
<path fill-rule="evenodd" clip-rule="evenodd" d="M34.0663 8.25869L32.3363 6.52866C32.3363 6.52868 32.3362 6.52869 32.3362 6.52871L32.3359 6.52839L32.2793 6.58499C31.2404 7.62386 29.5561 7.62386 28.5172 6.58499L28.4606 6.52839L26.7306 8.25842C27.8547 9.38251 29.3663 9.88279 30.8354 9.75928C30.7119 11.2283 31.2122 12.7399 32.3363 13.864L45.4437 26.9714C45.9631 27.4908 45.9631 28.333 45.4437 28.8524L34.8967 39.3993L15.2435 19.7461C14.288 20.7016 14.288 22.2507 15.2435 23.2062L34.8967 42.8594L47.9633 29.7929C49.0021 28.754 49.0021 27.0697 47.9633 26.0308L34.0663 12.134L34.0097 12.0774C32.9709 11.0385 32.9709 9.35416 34.0097 8.31529L34.0663 8.25869Z" fill="white"/>
</g>
</svg>

