<svg width="25" height="25" viewBox="0 0 25 25" fill="none" xmlns="http://www.w3.org/2000/svg">
<path d="M1.31371 1.31324C2.09476 0.532197 3.36109 0.532196 4.14214 1.31324L12.6274 9.79853L21.1127 1.31324C21.8937 0.532197 23.1601 0.532196 23.9411 1.31324C24.7222 2.09429 24.7222 3.36062 23.9411 4.14167L15.4558 12.627L23.9411 21.1122C24.7222 21.8933 24.7222 23.1596 23.9411 23.9407C23.1601 24.7217 21.8937 24.7217 21.1127 23.9407L12.6274 15.4554L4.14214 23.9407C3.36109 24.7217 2.09476 24.7217 1.31371 23.9407C0.53266 23.1596 0.53266 21.8933 1.31371 21.1122L9.79899 12.627L1.31371 4.14167C0.53266 3.36062 0.53266 2.09429 1.31371 1.31324Z" fill="#292929"/>
</svg>
