<svg width="59" height="64" viewBox="0 0 59 64" fill="none" xmlns="http://www.w3.org/2000/svg">
<path d="M56.6372 16.3145C56.5777 16.3145 56.4884 16.3145 56.399 16.3145C40.6518 14.7368 24.9343 14.1414 9.36559 15.7191L3.29292 16.3145C2.04266 16.4335 0.941246 15.5405 0.822173 14.2902C0.703101 13.04 1.59614 11.9683 2.81663 11.8492L8.8893 11.2539C24.7259 9.64639 40.7708 10.2715 56.8456 11.8492C58.0661 11.9683 58.9591 13.0697 58.84 14.2902C58.7507 15.4512 57.7684 16.3145 56.6372 16.3145Z" fill="#D7544C"/>
<path d="M19.4274 13.3064C19.3084 13.3064 19.1893 13.3064 19.0405 13.2766C17.8497 13.0682 17.0162 11.9073 17.2246 10.7166L17.8795 6.81692C18.3558 3.95917 19.0107 0 25.9466 0H33.7459C40.7116 0 41.3665 4.10801 41.813 6.84669L42.4679 10.7166C42.6763 11.937 41.8427 13.098 40.652 13.2766C39.4315 13.485 38.2706 12.6515 38.092 11.4608L37.4371 7.59089C37.0203 5.00106 36.931 4.495 33.7756 4.495H25.9764C22.821 4.495 22.7615 4.91175 22.3149 7.56112L21.6303 11.431C21.4517 12.5324 20.4991 13.3064 19.4274 13.3064Z" fill="#D7544C"/>
<path d="M39.4016 64H20.2905C9.90148 64 9.48473 58.2547 9.15728 53.6109L7.22236 23.6343C7.13305 22.4138 8.08563 21.3422 9.30612 21.2528C10.5564 21.1933 11.5983 22.1161 11.6876 23.3366L13.6225 53.3132C13.9499 57.838 14.069 59.5348 20.2905 59.5348H39.4016C45.6529 59.5348 45.7719 57.838 46.0696 53.3132L48.0045 23.3366C48.0938 22.1161 49.1655 21.1933 50.386 21.2528C51.6065 21.3422 52.559 22.384 52.4697 23.6343L50.5348 53.6109C50.2074 58.2547 49.7906 64 39.4016 64Z" fill="#D7544C"/>
<path d="M34.7879 47.6283H24.8752C23.6547 47.6283 22.6426 46.6162 22.6426 45.3957C22.6426 44.1752 23.6547 43.1631 24.8752 43.1631H34.7879C36.0084 43.1631 37.0205 44.1752 37.0205 45.3957C37.0205 46.6162 36.0084 47.6283 34.7879 47.6283Z" fill="#D7544C"/>
<path d="M37.2885 35.7211H22.4045C21.184 35.7211 20.1719 34.709 20.1719 33.4885C20.1719 32.268 21.184 31.2559 22.4045 31.2559H37.2885C38.509 31.2559 39.5211 32.268 39.5211 33.4885C39.5211 34.709 38.509 35.7211 37.2885 35.7211Z" fill="#D7544C"/>
</svg>
