<svg width="64" height="64" viewBox="0 0 64 64" fill="none" xmlns="http://www.w3.org/2000/svg">
<path d="M48.973 36.1018C48.3219 36.1018 47.6364 35.8276 47.1566 35.3478L28.6491 16.806C27.7923 15.9492 27.6552 14.6468 28.3064 13.6186L34.0985 4.46771C35.7094 1.9315 38.1427 0.354934 40.9874 0.0464764C44.1748 -0.261982 47.465 0.97185 50.0355 3.54233L60.4203 13.9271C62.8879 16.3947 64.1218 19.7192 63.7448 23.0095C63.4363 25.8884 61.894 28.3903 59.4949 29.8984L50.344 35.6905C49.9327 35.9647 49.4529 36.1018 48.973 36.1018ZM33.7215 14.6468L49.3501 30.2754L56.7873 25.5799C57.8498 24.8945 58.5352 23.7977 58.6723 22.4611C58.878 20.7474 58.1582 18.931 56.8216 17.5943L46.4368 7.20955C44.9631 5.73581 43.1809 4.94753 41.5701 5.18744C40.2677 5.32453 39.2052 6.04427 38.4512 7.24383L33.7215 14.6468Z" fill="#292929"/>
<path d="M10.9639 64C7.91356 64 5.17171 62.9033 3.11532 60.8812C0.716205 58.482 -0.346261 55.1576 0.0992895 51.4561L3.45805 22.9066C4.48625 14.2697 8.29056 11.1166 17.1673 11.6307L30.6024 12.419C32.0075 12.5218 33.1043 13.7214 33.0015 15.1266C32.8986 16.5318 31.6991 17.6285 30.2939 17.5257L16.8588 16.7717C10.7582 16.3947 9.25021 17.5942 8.56475 23.5235L5.20598 52.0387C4.96607 54.1294 5.51444 55.9801 6.74827 57.2139C8.01638 58.4478 9.86712 59.0304 11.9578 58.7562L40.473 55.3975C46.4708 54.6777 47.8074 53.1012 47.2248 47.2062L46.4023 33.6683C46.3337 32.2631 47.3962 31.0293 48.8014 30.9607C50.2066 30.8579 51.4404 31.9547 51.5089 33.3599L52.2972 46.7949C53.1198 55.3289 49.761 59.4417 41.0214 60.5042L12.5062 63.8629C12.0263 63.9657 11.478 64 10.9639 64Z" fill="#292929"/>
<path d="M6.57754 59.9928C5.92635 59.9928 5.27516 59.7529 4.76107 59.2388C3.76715 58.2449 3.76715 56.5998 4.76107 55.6059L15.1801 45.1868C16.174 44.1929 17.8191 44.1929 18.813 45.1868C19.807 46.1808 19.807 47.8259 18.813 48.8198L8.39401 59.2388C7.87992 59.7529 7.22873 59.9928 6.57754 59.9928Z" fill="#292929"/>
</svg>
