<svg width="64" height="64" viewBox="0 0 64 64" fill="none" xmlns="http://www.w3.org/2000/svg">
<path d="M20.0929 46.1397H12.4427C4.43533 46.1397 0 41.7341 0 33.6969V12.4428C0 4.43536 4.40556 0 12.4427 0H26.0464C34.0538 0 38.4892 4.4056 38.4892 12.4428C38.4892 13.6633 37.4771 14.6754 36.2566 14.6754C35.0362 14.6754 34.0241 13.6633 34.0241 12.4428C34.0241 6.84653 31.6427 4.46513 26.0464 4.46513H12.4427C6.84649 4.46513 4.4651 6.84653 4.4651 12.4428V33.6969C4.4651 39.2932 6.84649 41.6746 12.4427 41.6746H20.0929C21.3134 41.6746 22.3255 42.6867 22.3255 43.9071C22.3255 45.1276 21.3134 46.1397 20.0929 46.1397Z" fill="#292929"/>
<path d="M51.5572 64H37.9535C29.9461 64 25.5107 59.5944 25.5107 51.5571V30.3031C25.5107 22.2957 29.9163 17.8603 37.9535 17.8603H51.5572C59.5646 17.8603 63.9999 22.2659 63.9999 30.3031V51.5571C63.9999 59.5944 59.5943 64 51.5572 64ZM37.9535 22.3254C32.3572 22.3254 29.9758 24.7068 29.9758 30.3031V51.5571C29.9758 57.1534 32.3572 59.5349 37.9535 59.5349H51.5572C57.1534 59.5349 59.5348 57.1534 59.5348 51.5571V30.3031C59.5348 24.7068 57.1534 22.3254 51.5572 22.3254H37.9535Z" fill="#292929"/>
<path d="M50.247 43.1632H40.5726C39.3522 43.1632 38.3401 42.1511 38.3401 40.9306C38.3401 39.7102 39.3522 38.6981 40.5726 38.6981H50.247C51.4675 38.6981 52.4796 39.7102 52.4796 40.9306C52.4796 42.1511 51.4675 43.1632 50.247 43.1632Z" fill="#292929"/>
<path d="M45.3954 48.0147C44.1749 48.0147 43.1628 47.0026 43.1628 45.7821V36.1077C43.1628 34.8872 44.1749 33.8751 45.3954 33.8751C46.6159 33.8751 47.6279 34.8872 47.6279 36.1077V45.7821C47.6279 47.0026 46.6159 48.0147 45.3954 48.0147Z" fill="#292929"/>
</svg>
