<svg width="100" height="128" viewBox="0 0 100 128" fill="none" xmlns="http://www.w3.org/2000/svg">
<path d="M50 17.4545V0L25 23.2727L50 46.5455V29.0909C70.7188 29.0909 87.5 44.7127 87.5 64C87.5 69.9055 85.9062 75.4327 83.1562 80.32L92.2812 88.8145C97.125 81.6 100 73.1345 100 64C100 38.2836 77.625 17.4545 50 17.4545ZM50 98.9091C29.2812 98.9091 12.5 83.2873 12.5 64C12.5 58.0945 14.0938 52.5673 16.8438 47.68L7.71875 39.1855C2.875 46.4 0 54.8655 0 64C0 89.7164 22.375 110.545 50 110.545V128L75 104.727L50 81.4545V98.9091Z" fill="#D7544C"/>
</svg>
