<svg width="202" height="48" viewBox="0 0 202 48" fill="none" xmlns="http://www.w3.org/2000/svg">
<mask id="mask0_210_566" style="mask-type:alpha" maskUnits="userSpaceOnUse" x="0" y="0" width="50" height="47">
<path d="M0 0H49.2594V46.2874H0V0Z" fill="#C4C4C4"/>
</mask>
<g mask="url(#mask0_210_566)">
<path d="M38.7666 9.52891L38.7417 8.77159C38.9168 8.5994 39.0563 8.45672 39.1314 8.37434C40.2513 7.14515 40.7588 5.42766 40.488 3.7791C40.4777 3.71611 40.45 3.65847 40.4074 3.61174C40.3655 3.56568 40.3114 3.53432 40.2549 3.52321C38.7529 3.22598 37.1876 3.78252 36.0677 5.01173C35.9926 5.09408 35.8616 5.24615 35.7047 5.43824L35.0075 5.40306C34.7585 5.39247 34.4201 5.53034 34.2435 5.72412L32.9495 7.14437C32.779 7.33148 32.8256 7.52522 32.9265 7.63593L32.9267 7.63623C32.9774 7.6918 33.042 7.73633 33.1298 7.75604L34.2739 8.01633C34.3143 8.0254 34.3558 8.03123 34.3998 8.03189L33.8956 10.289C33.8612 10.4432 33.8888 10.5844 33.9719 10.6756C34.0551 10.7669 34.1832 10.7977 34.3237 10.76L36.3793 10.2074C36.3799 10.2557 36.3838 10.3028 36.392 10.3472L36.6263 11.606C36.6442 11.7024 36.6749 11.7749 36.7255 11.8305C36.8264 11.9412 37.0003 11.9646 37.1708 11.7775L38.4649 10.3572C38.6414 10.1635 38.7763 9.80219 38.7666 9.52891ZM37.539 6.76069C37.2483 6.44165 37.2493 5.92323 37.5413 5.60277C37.8332 5.28234 38.3056 5.28119 38.5963 5.60026C38.887 5.91934 38.886 6.43772 38.594 6.75818C38.302 7.07864 37.8297 7.07974 37.539 6.76069Z" fill="#292929"/>
<path d="M40.018 28.3266L15.1747 3.4833L5.71617 12.9418C1.04124 17.6167 1.04124 25.1962 5.71616 29.8711L22.0948 46.2498C24.6937 43.6509 24.6937 39.4373 22.0948 36.8384L12.3752 27.1188C9.2586 24.0022 9.2586 18.9492 12.3752 15.8325L15.2439 12.9639L35.3123 33.0323L40.018 28.3266Z" fill="#292929"/>
<path fill-rule="evenodd" clip-rule="evenodd" d="M34.0662 8.25835L32.3362 6.52831C32.3362 6.52833 32.3362 6.52835 32.3362 6.52836L32.3358 6.52804L32.2792 6.58464C31.2404 7.62351 29.556 7.62351 28.5171 6.58464L28.4605 6.52804L26.7305 8.25808C27.8546 9.38216 29.3663 9.88245 30.8353 9.75894C30.7119 11.228 31.2121 12.7396 32.3362 13.8637L45.4436 26.971C45.963 27.4905 45.963 28.3326 45.4436 28.8521L34.8967 39.399L15.2434 19.7458C14.2879 20.7013 14.2879 22.2504 15.2434 23.2059L34.8967 42.8591L47.9632 29.7926C49.002 28.7537 49.002 27.0694 47.9632 26.0305L34.0662 12.1336L34.0096 12.077C32.9708 11.0382 32.9708 9.35382 34.0096 8.31495L34.0662 8.25835Z" fill="#292929"/>
</g>
<path d="M175.475 43.3944V31.244H177.141L182.65 40.5709H181.955L187.556 31.244H189.083V43.3944H187.579V33.1186L187.88 33.2575L182.65 41.9133H181.909L176.632 33.1649L176.979 33.0955V43.3944H175.475Z" fill="#292929"/>
<path d="M162.315 48C161.744 48 161.196 47.9075 160.672 47.7223C160.163 47.5372 159.723 47.2594 159.353 46.8891L160.116 45.6625C160.425 45.9557 160.757 46.1794 161.112 46.3337C161.482 46.5034 161.891 46.5883 162.338 46.5883C162.878 46.5883 163.341 46.434 163.727 46.1254C164.128 45.8322 164.506 45.3077 164.861 44.5516L165.648 42.7696L165.833 42.515L170.832 31.244H172.452L166.365 44.8525C166.026 45.6394 165.648 46.2643 165.231 46.7271C164.83 47.19 164.39 47.514 163.912 47.6992C163.434 47.8998 162.901 48 162.315 48ZM165.555 43.7416L159.954 31.244H161.667L166.62 42.3993L165.555 43.7416Z" fill="#292929"/>
<path d="M157.807 43.3944L152.808 37.3771L154.174 36.5671L159.751 43.3944H157.807ZM148.897 43.3944V31.244H150.54V43.3944H148.897ZM150.031 37.9788V36.5671H153.942V37.9788H150.031ZM154.312 37.4928L152.785 37.2614L157.622 31.244H159.404L154.312 37.4928Z" fill="#292929"/>
<path d="M132.5 43.3944V31.244H134.143V40.8949L142.267 31.244H143.725V43.3944H142.081V33.7204L133.981 43.3944H132.5Z" fill="#292929"/>
<path d="M123.412 43.3944V32.2392L123.829 32.6789H118.807V31.244H129.661V32.6789H124.639L125.056 32.2392V43.3944H123.412Z" fill="#292929"/>
<path d="M116.346 43.3944L111.347 37.3771L112.713 36.5671L118.29 43.3944H116.346ZM107.436 43.3944V31.244H109.079V43.3944H107.436ZM108.57 37.9788V36.5671H112.481V37.9788H108.57ZM112.852 37.4928L111.324 37.2614L116.161 31.244H117.943L112.852 37.4928Z" fill="#292929"/>
<path d="M101.025 43.3945V40.7098L100.956 40.2701V35.7802C100.956 34.7464 100.663 33.9518 100.076 33.3964C99.5054 32.8409 98.6491 32.5632 97.5073 32.5632C96.7204 32.5632 95.9721 32.6944 95.2624 32.9566C94.5526 33.2189 93.9509 33.5661 93.4571 33.9981L92.7165 32.7715C93.3337 32.2469 94.0743 31.8458 94.9383 31.568C95.8024 31.2749 96.7127 31.1283 97.6693 31.1283C99.2431 31.1283 100.454 31.5217 101.303 32.3086C102.167 33.0801 102.599 34.2604 102.599 35.8496V43.3945H101.025ZM96.8361 43.5102C95.9258 43.5102 95.1312 43.3636 94.4523 43.0704C93.7889 42.7619 93.2797 42.3453 92.9248 41.8207C92.57 41.2807 92.3925 40.6635 92.3925 39.9692C92.3925 39.3366 92.5391 38.7657 92.8323 38.2566C93.1408 37.732 93.6346 37.3154 94.3135 37.0068C95.0078 36.6828 95.9335 36.5208 97.0907 36.5208H101.28V37.7474H97.137C95.9644 37.7474 95.1466 37.9557 94.6838 38.3723C94.2363 38.7889 94.0126 39.3057 94.0126 39.9229C94.0126 40.6172 94.2826 41.1727 94.8226 41.5892C95.3626 42.0058 96.1187 42.2141 97.0907 42.2141C98.0165 42.2141 98.8111 42.0058 99.4745 41.5892C100.153 41.1572 100.647 40.5401 100.956 39.7377L101.326 40.8718C101.017 41.6741 100.477 42.3144 99.706 42.7927C98.9499 43.271 97.9933 43.5102 96.8361 43.5102Z" fill="#292929"/>
<path d="M83.491 43.5102C82.4418 43.5102 81.4929 43.271 80.6443 42.7927C79.7957 42.299 79.1168 41.597 78.6077 40.6866C78.1139 39.7609 77.8671 38.6346 77.8671 37.3077C77.8671 35.9808 78.1139 34.8621 78.6077 33.9518C79.1014 33.0261 79.7726 32.3241 80.6212 31.8457C81.4698 31.3674 82.4264 31.1283 83.491 31.1283C84.6482 31.1283 85.6819 31.3906 86.5923 31.9152C87.518 32.4243 88.2432 33.1495 88.7678 34.0907C89.2924 35.0164 89.5547 36.0888 89.5547 37.3077C89.5547 38.542 89.2924 39.622 88.7678 40.5478C88.2432 41.4735 87.518 42.1987 86.5923 42.7233C85.6819 43.2479 84.6482 43.5102 83.491 43.5102ZM77.2191 47.8843V31.244H78.7928V34.9007L78.6308 37.3308L78.8623 39.784V47.8843H77.2191ZM83.3753 42.0521C84.2393 42.0521 85.0108 41.8593 85.6897 41.4735C86.3685 41.0724 86.9086 40.5169 87.3097 39.8072C87.7109 39.082 87.9115 38.2488 87.9115 37.3077C87.9115 36.3665 87.7109 35.541 87.3097 34.8313C86.9086 34.1215 86.3685 33.5661 85.6897 33.1649C85.0108 32.7638 84.2393 32.5632 83.3753 32.5632C82.5113 32.5632 81.7321 32.7638 81.0378 33.1649C80.3589 33.5661 79.8189 34.1215 79.4177 34.8313C79.032 35.541 78.8391 36.3665 78.8391 37.3077C78.8391 38.2488 79.032 39.082 79.4177 39.8072C79.8189 40.5169 80.3589 41.0724 81.0378 41.4735C81.7321 41.8593 82.5113 42.0521 83.3753 42.0521Z" fill="#292929"/>
<path d="M61.1613 43.3944V31.244H72.0852V43.3944H70.442V32.2392L70.8586 32.6789H62.388L62.8046 32.2392V43.3944H61.1613Z" fill="#292929"/>
<path d="M188.505 20.251V7.7997H192.093V15.2057L198.156 7.7997H201.466V20.251H197.879V12.845L191.838 20.251H188.505ZM194.754 6.45737C193.397 6.45737 192.378 6.16421 191.699 5.57791C191.02 4.97617 190.673 4.07357 190.658 2.87009H193.019C193.034 3.39469 193.181 3.81127 193.458 4.11985C193.736 4.42844 194.16 4.58273 194.731 4.58273C195.287 4.58273 195.711 4.42844 196.004 4.11985C196.313 3.81127 196.467 3.39469 196.467 2.87009H198.874C198.874 4.07357 198.527 4.97617 197.832 5.57791C197.138 6.16421 196.112 6.45737 194.754 6.45737Z" fill="#292929"/>
<path d="M181.438 20.2509V7.79964H185.025V20.2509H181.438ZM175.166 11.7804C176.802 11.7958 178.028 12.1661 178.846 12.8913C179.679 13.601 180.096 14.6116 180.096 15.9231C180.096 17.2963 179.625 18.3686 178.684 19.14C177.743 19.8961 176.408 20.2741 174.68 20.2741L168.616 20.2509V7.79964H172.204V11.7804H175.166ZM174.356 17.7051C175.05 17.7206 175.583 17.574 175.953 17.2654C176.323 16.9568 176.508 16.494 176.508 15.8768C176.508 15.2596 176.323 14.8199 175.953 14.5576C175.583 14.2799 175.05 14.1333 174.356 14.1179L172.204 14.0947V17.7051H174.356Z" fill="#292929"/>
<path d="M152.547 20.2509V7.79964H156.134V12.6598H161.55V7.79964H165.16V20.2509H161.55V15.5991H156.134V20.2509H152.547Z" fill="#292929"/>
<path d="M142.823 20.2509V9.92886L143.633 10.762H138.611V7.79964H150.622V10.762H145.6L146.41 9.92886V20.2509H142.823Z" fill="#292929"/>
<path d="M134.243 20.2509L130.077 14.3493L133.016 12.6135L138.501 20.2509H134.243ZM125.425 20.2509V7.79964H129.036V20.2509H125.425ZM127.971 15.5296V12.6367H132.322V15.5296H127.971ZM133.363 14.4419L129.985 14.0716L134.359 7.79964H138.201L133.363 14.4419Z" fill="#292929"/>
<path d="M116.64 20.4359C115.221 20.4359 113.971 20.1582 112.891 19.6028C111.826 19.0473 111.001 18.2913 110.415 17.3347C109.828 16.3627 109.535 15.2595 109.535 14.0251C109.535 12.7754 109.821 11.6722 110.391 10.7156C110.978 9.74356 111.772 8.98753 112.775 8.44751C113.778 7.89207 114.912 7.61434 116.177 7.61434C117.396 7.61434 118.492 7.87664 119.464 8.40123C120.451 8.91039 121.23 9.65099 121.801 10.623C122.372 11.5796 122.658 12.7291 122.658 14.0714C122.658 14.2103 122.65 14.3723 122.634 14.5574C122.619 14.7272 122.604 14.8892 122.588 15.0435H112.474V12.9374H120.69L119.302 13.5623C119.302 12.9142 119.171 12.3511 118.908 11.8728C118.646 11.3945 118.283 11.0242 117.821 10.7619C117.358 10.4842 116.818 10.3453 116.201 10.3453C115.583 10.3453 115.036 10.4842 114.557 10.7619C114.094 11.0242 113.732 11.4022 113.47 11.8959C113.207 12.3742 113.076 12.9451 113.076 13.6086V14.164C113.076 14.8429 113.223 15.4446 113.516 15.9692C113.824 16.4784 114.249 16.8718 114.789 17.1495C115.344 17.4118 115.992 17.543 116.733 17.543C117.396 17.543 117.975 17.4427 118.469 17.2421C118.978 17.0415 119.441 16.7407 119.857 16.3395L121.778 18.4224C121.207 19.0705 120.49 19.5719 119.626 19.9268C118.762 20.2662 117.767 20.4359 116.64 20.4359Z" fill="#292929"/>
<path d="M101.243 20.4359C99.916 20.4359 98.7356 20.1582 97.7019 19.6028C96.6835 19.0473 95.8735 18.2913 95.2718 17.3347C94.6855 16.3627 94.3923 15.2595 94.3923 14.0251C94.3923 12.7754 94.6855 11.6722 95.2718 10.7156C95.8735 9.74356 96.6835 8.98753 97.7019 8.44751C98.7356 7.89207 99.916 7.61434 101.243 7.61434C102.554 7.61434 103.727 7.89207 104.761 8.44751C105.794 8.98753 106.604 9.73585 107.191 10.6925C107.777 11.6491 108.07 12.76 108.07 14.0251C108.07 15.2595 107.777 16.3627 107.191 17.3347C106.604 18.2913 105.794 19.0473 104.761 19.6028C103.727 20.1582 102.554 20.4359 101.243 20.4359ZM101.243 17.4735C101.845 17.4735 102.385 17.3347 102.863 17.057C103.341 16.7792 103.719 16.3858 103.997 15.8766C104.275 15.352 104.414 14.7349 104.414 14.0251C104.414 13.3 104.275 12.6828 103.997 12.1736C103.719 11.6645 103.341 11.271 102.863 10.9933C102.385 10.7156 101.845 10.5767 101.243 10.5767C100.641 10.5767 100.101 10.7156 99.6228 10.9933C99.1445 11.271 98.7588 11.6645 98.4656 12.1736C98.1879 12.6828 98.049 13.3 98.049 14.0251C98.049 14.7349 98.1879 15.352 98.4656 15.8766C98.7588 16.3858 99.1445 16.7792 99.6228 17.057C100.101 17.3347 100.641 17.4735 101.243 17.4735Z" fill="#292929"/>
<path d="M86.6776 20.4359C85.6284 20.4359 84.7104 20.2045 83.9235 19.7416C83.1366 19.2788 82.5194 18.5767 82.072 17.6356C81.64 16.679 81.424 15.4755 81.424 14.0251C81.424 12.5594 81.6323 11.3559 82.0489 10.4147C82.4654 9.47355 83.0672 8.77153 83.8541 8.30865C84.641 7.84578 85.5821 7.61434 86.6776 7.61434C87.8502 7.61434 88.8994 7.88435 89.8252 8.42437C90.7663 8.94896 91.5069 9.68956 92.047 10.6462C92.6024 11.6028 92.8801 12.7291 92.8801 14.0251C92.8801 15.3366 92.6024 16.4707 92.047 17.4273C91.5069 18.3839 90.7663 19.1245 89.8252 19.6491C88.8994 20.1736 87.8502 20.4359 86.6776 20.4359ZM79.3179 24.7407V7.79949H82.7663V10.3453L82.6969 14.0483L82.9283 17.7281V24.7407H79.3179ZM86.0527 17.4735C86.6545 17.4735 87.1868 17.3347 87.6496 17.057C88.1279 16.7792 88.506 16.3858 88.7837 15.8766C89.0768 15.352 89.2234 14.7349 89.2234 14.0251C89.2234 13.3 89.0768 12.6828 88.7837 12.1736C88.506 11.6645 88.1279 11.271 87.6496 10.9933C87.1868 10.7156 86.6545 10.5767 86.0527 10.5767C85.451 10.5767 84.911 10.7156 84.4327 10.9933C83.9544 11.271 83.5763 11.6645 83.2986 12.1736C83.0209 12.6828 82.882 13.3 82.882 14.0251C82.882 14.7349 83.0209 15.352 83.2986 15.8766C83.5763 16.3858 83.9544 16.7792 84.4327 17.057C84.911 17.3347 85.451 17.4735 86.0527 17.4735Z" fill="#292929"/>
<path d="M60.8372 20.251V4.05039H75.6029V20.251H71.8767V6.24904L72.733 7.10536H63.707L64.5633 6.24904V20.251H60.8372Z" fill="#292929"/>
</svg>
