<svg width="202" height="48" viewBox="0 0 202 48" fill="none" xmlns="http://www.w3.org/2000/svg">
<mask id="mask0_210_522" style="mask-type:alpha" maskUnits="userSpaceOnUse" x="0" y="0" width="50" height="47">
<path d="M0 0H49.2594V46.2874H0V0Z" fill="#C4C4C4"/>
</mask>
<g mask="url(#mask0_210_522)">
<path d="M38.7668 9.52973L38.7419 8.77241C38.917 8.60022 39.0565 8.45754 39.1316 8.37516C40.2515 7.14598 40.759 5.42848 40.4882 3.77992C40.4779 3.71693 40.4502 3.65929 40.4077 3.61257C40.3657 3.56651 40.3116 3.53514 40.2551 3.52404C38.7531 3.22681 37.1878 3.78334 36.0679 5.01256C35.9928 5.09491 35.8618 5.24698 35.7049 5.43906L35.0077 5.40388C34.7587 5.39329 34.4203 5.53116 34.2437 5.72494L32.9497 7.14519C32.7792 7.3323 32.8258 7.52604 32.9267 7.63675L32.9269 7.63705C32.9776 7.69262 33.0422 7.73715 33.13 7.75686L34.2741 8.01715C34.3145 8.02622 34.356 8.03205 34.4 8.03271L33.8958 10.2898C33.8614 10.4441 33.889 10.5852 33.9721 10.6764C34.0553 10.7677 34.1834 10.7986 34.3239 10.7608L36.3796 10.2083C36.3802 10.2566 36.384 10.3037 36.3922 10.348L36.6265 11.6069C36.6444 11.7032 36.6751 11.7757 36.7257 11.8313C36.8266 11.942 37.0005 11.9654 37.1711 11.7783L38.4651 10.358C38.6416 10.1643 38.7765 9.80301 38.7668 9.52973ZM37.5392 6.76151C37.2485 6.44247 37.2495 5.92405 37.5415 5.60359C37.8334 5.28316 38.3058 5.28201 38.5965 5.60108C38.8872 5.92016 38.8862 6.43854 38.5942 6.75901C38.3022 7.07947 37.8299 7.08056 37.5392 6.76151Z" fill="white"/>
<path d="M40.0181 28.3267L15.1747 3.4834L5.71615 12.9419C1.04122 17.6168 1.04121 25.1963 5.71614 29.8712L22.0948 46.2498C24.6937 43.651 24.6937 39.4373 22.0948 36.8384L12.3752 27.1189C9.25858 24.0023 9.25858 18.9492 12.3752 15.8326L15.2439 12.964L35.3124 33.0324L40.0181 28.3267Z" fill="white"/>
<path fill-rule="evenodd" clip-rule="evenodd" d="M34.0663 8.25869L32.3363 6.52866C32.3363 6.52868 32.3362 6.52869 32.3362 6.52871L32.3359 6.52839L32.2793 6.58499C31.2404 7.62386 29.5561 7.62386 28.5172 6.58499L28.4606 6.52839L26.7306 8.25842C27.8547 9.38251 29.3663 9.88279 30.8354 9.75928C30.7119 11.2283 31.2122 12.7399 32.3363 13.864L45.4437 26.9714C45.9631 27.4908 45.9631 28.333 45.4437 28.8524L34.8967 39.3993L15.2435 19.7461C14.288 20.7016 14.288 22.2507 15.2435 23.2062L34.8967 42.8594L47.9633 29.7929C49.0021 28.754 49.0021 27.0697 47.9633 26.0308L34.0663 12.134L34.0097 12.0774C32.9709 11.0385 32.9709 9.35416 34.0097 8.31529L34.0663 8.25869Z" fill="white"/>
</g>
<path d="M175.475 43.3946V31.2441H177.142L182.65 40.571H181.955L187.556 31.2441H189.084V43.3946H187.579V33.1188L187.88 33.2576L182.65 41.9134H181.909L176.632 33.1651L176.98 33.0956V43.3946H175.475Z" fill="white"/>
<path d="M162.315 48.0002C161.744 48.0002 161.197 47.9076 160.672 47.7224C160.163 47.5373 159.723 47.2596 159.353 46.8893L160.117 45.6627C160.425 45.9558 160.757 46.1795 161.112 46.3338C161.482 46.5035 161.891 46.5884 162.338 46.5884C162.878 46.5884 163.341 46.4341 163.727 46.1255C164.128 45.8324 164.506 45.3078 164.861 44.5518L165.648 42.7697L165.833 42.5151L170.832 31.2441H172.452L166.365 44.8526C166.026 45.6395 165.648 46.2644 165.231 46.7273C164.83 47.1901 164.391 47.5142 163.912 47.6993C163.434 47.8999 162.902 48.0002 162.315 48.0002ZM165.555 43.7417L159.955 31.2441H161.667L166.62 42.3994L165.555 43.7417Z" fill="white"/>
<path d="M157.808 43.3946L152.809 37.3772L154.174 36.5672L159.752 43.3946H157.808ZM148.897 43.3946V31.2441H150.541V43.3946H148.897ZM150.031 37.979V36.5672H153.943V37.979H150.031ZM154.313 37.4929L152.785 37.2615L157.622 31.2441H159.405L154.313 37.4929Z" fill="white"/>
<path d="M132.5 43.3946V31.2441H134.143V40.8951L142.267 31.2441H143.725V43.3946H142.082V33.7205L133.981 43.3946H132.5Z" fill="white"/>
<path d="M123.413 43.3946V32.2393L123.829 32.6791H118.807V31.2441H129.662V32.6791H124.639L125.056 32.2393V43.3946H123.413Z" fill="white"/>
<path d="M116.347 43.3946L111.348 37.3772L112.713 36.5672L118.291 43.3946H116.347ZM107.436 43.3946V31.2441H109.079V43.3946H107.436ZM108.57 37.979V36.5672H112.482V37.979H108.57ZM112.852 37.4929L111.324 37.2615L116.161 31.2441H117.944L112.852 37.4929Z" fill="white"/>
<path d="M101.025 43.3951V40.7104L100.956 40.2707V35.7808C100.956 34.747 100.663 33.9524 100.076 33.397C99.5056 32.8415 98.6492 32.5638 97.5075 32.5638C96.7206 32.5638 95.9723 32.695 95.2625 32.9573C94.5528 33.2196 93.9511 33.5667 93.4573 33.9987L92.7167 32.7721C93.3339 32.2475 94.0745 31.8464 94.9385 31.5686C95.8026 31.2755 96.7129 31.1289 97.6695 31.1289C99.2433 31.1289 100.454 31.5223 101.303 32.3092C102.167 33.0807 102.599 34.261 102.599 35.8502V43.3951H101.025ZM96.8363 43.5108C95.926 43.5108 95.1314 43.3642 94.4525 43.071C93.7891 42.7625 93.2799 42.3459 92.925 41.8213C92.5701 41.2813 92.3927 40.6641 92.3927 39.9698C92.3927 39.3372 92.5393 38.7663 92.8324 38.2572C93.141 37.7326 93.6348 37.316 94.3136 37.0074C95.008 36.6834 95.9337 36.5214 97.0909 36.5214H101.28V37.748H97.1372C95.9646 37.748 95.1468 37.9563 94.6839 38.3729C94.2365 38.7895 94.0128 39.3063 94.0128 39.9235C94.0128 40.6178 94.2828 41.1733 94.8228 41.5899C95.3628 42.0064 96.1189 42.2147 97.0909 42.2147C98.0166 42.2147 98.8112 42.0064 99.4747 41.5899C100.154 41.1578 100.647 40.5407 100.956 39.7384L101.326 40.8724C101.018 41.6747 100.478 42.315 99.7061 42.7933C98.9501 43.2716 97.9935 43.5108 96.8363 43.5108Z" fill="white"/>
<path d="M83.4913 43.5108C82.4421 43.5108 81.4932 43.2716 80.6446 42.7933C79.796 42.2996 79.1171 41.5976 78.608 40.6872C78.1142 39.7615 77.8674 38.6352 77.8674 37.3083C77.8674 35.9814 78.1142 34.8628 78.608 33.9524C79.1017 33.0267 79.7729 32.3247 80.6215 31.8464C81.4701 31.3681 82.4267 31.1289 83.4913 31.1289C84.6485 31.1289 85.6822 31.3912 86.5925 31.9158C87.5183 32.425 88.2435 33.1501 88.7681 34.0913C89.2926 35.017 89.5549 36.0894 89.5549 37.3083C89.5549 38.5426 89.2926 39.6226 88.7681 40.5484C88.2435 41.4741 87.5183 42.1993 86.5925 42.7239C85.6822 43.2485 84.6485 43.5108 83.4913 43.5108ZM77.2193 47.8849V31.2446H78.7931V34.9013L78.6311 37.3314L78.8625 39.7846V47.8849H77.2193ZM83.3756 42.0527C84.2396 42.0527 85.0111 41.8599 85.6899 41.4741C86.3688 41.073 86.9088 40.5175 87.31 39.8078C87.7112 39.0826 87.9117 38.2494 87.9117 37.3083C87.9117 36.3671 87.7112 35.5416 87.31 34.8319C86.9088 34.1222 86.3688 33.5667 85.6899 33.1655C85.0111 32.7644 84.2396 32.5638 83.3756 32.5638C82.5115 32.5638 81.7324 32.7644 81.038 33.1655C80.3592 33.5667 79.8191 34.1222 79.418 34.8319C79.0323 35.5416 78.8394 36.3671 78.8394 37.3083C78.8394 38.2494 79.0323 39.0826 79.418 39.8078C79.8191 40.5175 80.3592 41.073 81.038 41.4741C81.7324 41.8599 82.5115 42.0527 83.3756 42.0527Z" fill="white"/>
<path d="M61.1616 43.3946V31.2441H72.0854V43.3946H70.4422V32.2393L70.8588 32.6791H62.3882L62.8048 32.2393V43.3946H61.1616Z" fill="white"/>
<path d="M188.506 20.251V7.79972H192.093V15.2057L198.157 7.79972H201.466V20.251H197.879V12.845L191.839 20.251H188.506ZM194.755 6.45739C193.397 6.45739 192.379 6.16424 191.7 5.57793C191.021 4.97619 190.674 4.07359 190.658 2.87012H193.019C193.034 3.39471 193.181 3.81129 193.459 4.11988C193.736 4.42846 194.161 4.58275 194.732 4.58275C195.287 4.58275 195.711 4.42846 196.005 4.11988C196.313 3.81129 196.467 3.39471 196.467 2.87012H198.874C198.874 4.07359 198.527 4.97619 197.833 5.57793C197.139 6.16424 196.113 6.45739 194.755 6.45739Z" fill="white"/>
<path d="M181.438 20.2511V7.7998H185.026V20.2511H181.438ZM175.166 11.7805C176.802 11.7959 178.028 12.1662 178.846 12.8914C179.679 13.6012 180.096 14.6118 180.096 15.9232C180.096 17.2964 179.625 18.3688 178.684 19.1402C177.743 19.8962 176.408 20.2743 174.68 20.2743L168.617 20.2511V7.7998H172.204V11.7805H175.166ZM174.356 17.7053C175.051 17.7207 175.583 17.5742 175.953 17.2656C176.324 16.957 176.509 16.4941 176.509 15.877C176.509 15.2598 176.324 14.8201 175.953 14.5578C175.583 14.28 175.051 14.1335 174.356 14.118L172.204 14.0949V17.7053H174.356Z" fill="white"/>
<path d="M152.547 20.2511V7.7998H156.134V12.66H161.55V7.7998H165.16V20.2511H161.55V15.5992H156.134V20.2511H152.547Z" fill="white"/>
<path d="M142.823 20.2511V9.92902L143.633 10.7622H138.611V7.7998H150.622V10.7622H145.6L146.41 9.92902V20.2511H142.823Z" fill="white"/>
<path d="M134.243 20.2511L130.077 14.3495L133.017 12.6137L138.502 20.2511H134.243ZM125.425 20.2511V7.7998H129.036V20.2511H125.425ZM127.971 15.5298V12.6368H132.322V15.5298H127.971ZM133.364 14.442L129.985 14.0717L134.359 7.7998H138.201L133.364 14.442Z" fill="white"/>
<path d="M116.641 20.4361C115.221 20.4361 113.971 20.1584 112.891 19.6029C111.827 19.0475 111.001 18.2915 110.415 17.3348C109.829 16.3628 109.535 15.2596 109.535 14.0253C109.535 12.7755 109.821 11.6724 110.392 10.7158C110.978 9.74372 111.773 8.98769 112.776 8.44767C113.778 7.89223 114.912 7.6145 116.178 7.6145C117.397 7.6145 118.492 7.8768 119.464 8.40139C120.452 8.91055 121.231 9.65115 121.802 10.6232C122.372 11.5798 122.658 12.7293 122.658 14.0716C122.658 14.2105 122.65 14.3725 122.635 14.5576C122.619 14.7273 122.604 14.8893 122.588 15.0436H112.475V12.9375H120.691L119.302 13.5624C119.302 12.9144 119.171 12.3512 118.909 11.8729C118.646 11.3946 118.284 11.0243 117.821 10.762C117.358 10.4843 116.818 10.3455 116.201 10.3455C115.584 10.3455 115.036 10.4843 114.558 10.762C114.095 11.0243 113.732 11.4024 113.47 11.8961C113.208 12.3744 113.076 12.9453 113.076 13.6087V14.1642C113.076 14.843 113.223 15.4448 113.516 15.9694C113.825 16.4785 114.249 16.872 114.789 17.1497C115.344 17.412 115.993 17.5431 116.733 17.5431C117.397 17.5431 117.975 17.4429 118.469 17.2423C118.978 17.0417 119.441 16.7408 119.858 16.3397L121.778 18.4226C121.208 19.0706 120.49 19.5721 119.626 19.9269C118.762 20.2664 117.767 20.4361 116.641 20.4361Z" fill="white"/>
<path d="M101.243 20.4361C99.9162 20.4361 98.7359 20.1584 97.7021 19.6029C96.6838 19.0475 95.8738 18.2915 95.272 17.3348C94.6857 16.3628 94.3926 15.2596 94.3926 14.0253C94.3926 12.7755 94.6857 11.6724 95.272 10.7158C95.8738 9.74372 96.6838 8.98769 97.7021 8.44767C98.7359 7.89223 99.9162 7.6145 101.243 7.6145C102.555 7.6145 103.727 7.89223 104.761 8.44767C105.795 8.98769 106.605 9.73601 107.191 10.6926C107.777 11.6492 108.071 12.7601 108.071 14.0253C108.071 15.2596 107.777 16.3628 107.191 17.3348C106.605 18.2915 105.795 19.0475 104.761 19.6029C103.727 20.1584 102.555 20.4361 101.243 20.4361ZM101.243 17.4737C101.845 17.4737 102.385 17.3348 102.863 17.0571C103.341 16.7794 103.719 16.386 103.997 15.8768C104.275 15.3522 104.414 14.735 104.414 14.0253C104.414 13.3001 104.275 12.683 103.997 12.1738C103.719 11.6646 103.341 11.2712 102.863 10.9935C102.385 10.7158 101.845 10.5769 101.243 10.5769C100.641 10.5769 100.101 10.7158 99.6231 10.9935C99.1448 11.2712 98.759 11.6646 98.4659 12.1738C98.1882 12.683 98.0493 13.3001 98.0493 14.0253C98.0493 14.735 98.1882 15.3522 98.4659 15.8768C98.759 16.386 99.1448 16.7794 99.6231 17.0571C100.101 17.3348 100.641 17.4737 101.243 17.4737Z" fill="white"/>
<path d="M86.6779 20.4361C85.6287 20.4361 84.7106 20.2047 83.9237 19.7418C83.1369 19.2789 82.5197 18.5769 82.0722 17.6357C81.6402 16.6791 81.4242 15.4756 81.4242 14.0253C81.4242 12.5595 81.6325 11.3561 82.0491 10.4149C82.4657 9.47371 83.0674 8.77169 83.8543 8.30881C84.6412 7.84594 85.5824 7.6145 86.6779 7.6145C87.8505 7.6145 88.8996 7.88451 89.8254 8.42453C90.7666 8.94912 91.5072 9.68972 92.0472 10.6463C92.6026 11.6029 92.8804 12.7293 92.8804 14.0253C92.8804 15.3368 92.6026 16.4708 92.0472 17.4274C91.5072 18.384 90.7666 19.1246 89.8254 19.6492C88.8996 20.1738 87.8505 20.4361 86.6779 20.4361ZM79.3181 24.7408V7.79965H82.7666V10.3455L82.6971 14.0484L82.9286 17.7283V24.7408H79.3181ZM86.053 17.4737C86.6547 17.4737 87.187 17.3348 87.6499 17.0571C88.1282 16.7794 88.5062 16.386 88.7839 15.8768C89.0771 15.3522 89.2237 14.735 89.2237 14.0253C89.2237 13.3001 89.0771 12.683 88.7839 12.1738C88.5062 11.6646 88.1282 11.2712 87.6499 10.9935C87.187 10.7158 86.6547 10.5769 86.053 10.5769C85.4512 10.5769 84.9112 10.7158 84.4329 10.9935C83.9546 11.2712 83.5766 11.6646 83.2989 12.1738C83.0211 12.683 82.8823 13.3001 82.8823 14.0253C82.8823 14.735 83.0211 15.3522 83.2989 15.8768C83.5766 16.386 83.9546 16.7794 84.4329 17.0571C84.9112 17.3348 85.4512 17.4737 86.053 17.4737Z" fill="white"/>
<path d="M60.8372 20.2514V4.05078H75.6029V20.2514H71.8768V6.24943L72.7331 7.10575H63.707L64.5634 6.24943V20.2514H60.8372Z" fill="white"/>
</svg>
